<?xml version="1.0" standalone="no"?>
<!DOCTYPE svg PUBLIC "-//W3C//DTD SVG 20010904//EN"
 "http://www.w3.org/TR/2001/REC-SVG-20010904/DTD/svg10.dtd">
<svg version="1.0" xmlns="http://www.w3.org/2000/svg"
 width="256.000000pt" height="256.000000pt" viewBox="0 0 256.000000 256.000000"
 preserveAspectRatio="xMidYMid meet">
<metadata>
Created by potrace 1.11, written by Peter Selinger 2001-2013
</metadata>
<g transform="translate(0.000000,256.000000) scale(0.100000,-0.100000)"
fill="#000000" stroke="none">
<path d="M58 2221 c-31 -27 -32 -32 -33 -105 0 -42 -3 -76 -7 -76 -10 0 -6
-23 6 -31 4 -4 4 -15 -2 -25 -6 -11 -7 -27 -1 -41 5 -13 5 -23 0 -23 -4 0 -8
-7 -8 -15 0 -8 3 -15 6 -15 9 0 6 -43 -3 -58 -4 -7 -3 -12 2 -12 5 0 9 -7 9
-15 0 -8 -4 -15 -9 -15 -5 0 -4 -8 1 -18 5 -10 6 -24 1 -32 -4 -7 -4 -24 1
-37 5 -12 5 -23 0 -23 -4 0 -8 -7 -8 -15 0 -8 3 -15 6 -15 9 0 6 -43 -3 -58
-4 -7 -3 -12 2 -12 5 0 9 -7 9 -15 0 -8 -4 -15 -9 -15 -5 0 -4 -8 1 -18 5 -10
6 -24 1 -32 -4 -7 -4 -24 1 -37 5 -12 5 -23 0 -23 -4 0 -8 -7 -8 -15 0 -8 3
-15 6 -15 9 0 6 -43 -3 -58 -4 -7 -3 -12 2 -12 5 0 9 -7 9 -15 0 -8 -4 -15 -9
-15 -5 0 -4 -8 1 -18 5 -10 6 -24 1 -32 -4 -7 -4 -24 1 -37 5 -12 5 -23 0 -23
-4 0 -8 -7 -8 -15 0 -8 3 -15 6 -15 9 0 6 -43 -3 -58 -4 -7 -3 -12 2 -12 5 0
9 -7 9 -15 0 -8 -4 -15 -9 -15 -5 0 -4 -8 1 -18 5 -10 6 -24 1 -32 -4 -7 -4
-24 1 -37 5 -12 5 -23 0 -23 -4 0 -8 -7 -8 -15 0 -8 3 -15 6 -15 9 0 6 -43 -3
-58 -4 -7 -3 -12 2 -12 5 0 9 -7 9 -15 0 -8 -4 -15 -9 -15 -5 0 -4 -8 1 -18 5
-10 6 -24 1 -32 -4 -7 -4 -24 1 -37 5 -12 5 -23 0 -23 -4 0 -8 -7 -8 -15 0 -8
3 -15 6 -15 9 0 6 -43 -3 -58 -4 -7 -3 -12 2 -12 5 0 9 -7 9 -15 0 -8 -4 -15
-9 -15 -5 0 -4 -8 1 -18 5 -10 6 -24 1 -32 -4 -7 -4 -24 1 -37 5 -12 5 -23 0
-23 -4 0 -8 -7 -8 -15 0 -8 3 -15 6 -15 8 0 7 -48 -2 -56 -7 -7 12 -44 33 -61
13 -12 13 -13 0 -10 -8 2 -11 2 -7 -1 4 -2 2 -11 -5 -20 -12 -15 -11 -15 4 -4
30 24 91 0 84 -33 -2 -5 -1 -7 1 -2 3 4 10 4 16 0 9 -5 9 -3 0 8 -8 10 -9 19
-1 29 8 12 9 12 4 -3 -7 -22 3 -22 20 1 12 15 13 13 4 -13 l-11 -29 25 27 c28
30 38 34 30 12 -4 -8 -10 -12 -15 -9 -5 3 -9 1 -9 -3 0 -5 9 -14 21 -21 16
-10 19 -10 13 -1 -5 9 -2 11 9 6 18 -7 42 17 32 32 -3 7 0 8 9 5 16 -6 17 -24
2 -35 -4 -4 -3 -10 3 -13 6 -4 11 -2 11 4 0 6 5 8 12 4 6 -4 8 -3 5 3 -4 6 0
13 8 17 13 5 20 -5 16 -26 0 -5 3 -8 9 -8 5 0 10 5 10 12 0 6 3 8 7 5 4 -4 20
5 36 20 l30 28 -19 -30 c-14 -21 -15 -27 -4 -20 18 12 60 7 79 -8 12 -10 12
-9 1 10 -8 12 -18 20 -22 17 -4 -3 -5 3 -1 12 4 11 8 13 11 6 2 -7 10 -12 18
-12 9 0 12 -4 9 -10 -3 -5 -1 -10 4 -10 6 0 11 5 11 10 0 6 5 10 11 10 5 0 8
-4 5 -9 -3 -5 1 -14 8 -20 10 -8 16 -9 21 -1 6 9 -1 14 -18 11 -4 -1 -2 8 5
19 7 11 17 20 22 20 4 0 3 -6 -3 -14 -9 -11 -8 -15 4 -20 9 -3 13 -10 10 -16
-3 -5 -1 -10 4 -10 6 0 11 5 11 12 0 6 3 8 7 5 4 -4 20 5 36 20 l30 28 -17
-27 -18 -27 27 5 c20 3 25 1 19 -8 -6 -10 -3 -9 9 1 14 11 20 11 34 0 15 -13
15 -12 3 8 -12 18 -17 20 -29 10 -12 -10 -12 -9 0 11 8 12 15 18 17 12 2 -5
10 -10 18 -10 9 0 12 -4 9 -10 -3 -5 -1 -10 4 -10 6 0 11 5 11 10 0 6 5 10 11
10 5 0 8 -4 5 -9 -3 -5 1 -14 8 -20 10 -8 16 -9 21 -1 6 9 -1 14 -18 11 -4 -1
-2 8 5 19 7 11 17 20 22 20 4 0 3 -6 -3 -14 -9 -11 -8 -15 4 -20 9 -3 13 -10
10 -16 -3 -5 -1 -10 4 -10 6 0 11 5 11 12 0 6 3 8 7 5 4 -4 20 5 36 20 l30 28
-18 -30 c-10 -16 -13 -25 -6 -19 8 8 25 9 49 3 31 -7 39 -4 58 17 26 27 36 31
28 9 -4 -8 -10 -12 -15 -9 -5 3 -9 1 -9 -3 0 -5 9 -14 21 -21 16 -10 19 -10
13 -1 -5 9 -2 11 9 6 18 -7 42 17 32 32 -3 7 0 8 9 5 16 -6 17 -24 2 -35 -4
-4 -3 -10 3 -13 6 -4 11 -2 11 4 0 6 5 8 12 4 6 -4 9 -3 6 2 -3 5 3 18 14 29
19 20 19 20 8 -10 l-11 -29 25 27 c28 30 38 34 30 12 -4 -8 -10 -12 -15 -9 -5
3 -9 1 -9 -3 0 -5 9 -14 21 -21 16 -10 19 -10 13 -1 -5 9 -2 11 9 6 18 -7 42
17 32 32 -3 7 0 8 9 5 16 -6 17 -24 2 -35 -4 -4 -3 -10 3 -13 6 -4 11 -2 11 4
0 6 5 8 12 4 6 -4 8 -3 5 3 -4 6 0 13 8 17 13 5 20 -5 16 -26 0 -5 3 -8 9 -8
5 0 10 5 10 12 0 6 3 8 7 5 4 -4 20 5 36 20 l30 28 -19 -30 c-14 -21 -15 -27
-4 -20 18 12 60 7 79 -8 12 -10 12 -9 1 10 -8 12 -18 20 -22 17 -4 -3 -5 3 -1
12 4 11 8 13 11 6 2 -7 10 -12 18 -12 9 0 12 -5 9 -10 -3 -6 -1 -10 4 -10 6 0
11 5 11 10 0 6 5 10 11 10 5 0 8 -4 5 -9 -3 -5 1 -14 8 -20 10 -8 16 -9 21 -1
6 9 -1 14 -18 11 -4 -1 -2 8 5 19 7 11 17 20 22 20 4 0 3 -6 -3 -14 -9 -11 -8
-15 4 -20 9 -3 13 -10 10 -16 -3 -5 -1 -10 4 -10 6 0 11 5 11 12 0 6 3 8 7 5
4 -4 20 5 36 20 l30 28 -17 -27 -18 -27 27 5 c20 3 25 1 19 -8 -6 -10 -3 -9 9
1 14 11 20 11 34 0 15 -13 15 -12 3 8 -12 18 -17 20 -29 10 -12 -10 -12 -9 0
11 8 12 15 18 17 12 2 -5 10 -10 18 -10 9 0 12 -5 9 -10 -3 -6 -1 -10 4 -10 6
0 11 5 11 10 0 6 5 10 11 10 5 0 8 -4 5 -9 -3 -5 1 -14 8 -20 10 -8 16 -9 21
-1 6 9 -1 14 -18 11 -4 -1 -2 8 5 19 7 11 17 20 22 20 4 0 3 -6 -3 -14 -9 -11
-8 -15 4 -20 9 -3 13 -10 10 -16 -3 -5 -1 -10 4 -10 6 0 11 5 11 12 0 6 3 8 7
5 4 -4 20 5 36 20 l30 28 -18 -30 c-10 -16 -13 -25 -6 -19 8 8 25 9 49 3 31
-7 39 -4 58 17 26 27 36 31 28 9 -4 -8 -10 -12 -15 -9 -5 3 -9 1 -9 -3 0 -5 9
-14 21 -21 16 -10 19 -10 13 -1 -5 9 -2 11 9 6 18 -7 42 17 32 32 -3 7 0 8 9
5 16 -6 17 -24 2 -35 -4 -4 -3 -10 3 -13 6 -4 11 -2 11 4 0 6 5 8 12 4 6 -4 9
-3 6 2 -3 5 3 18 14 29 19 20 19 20 8 -10 l-11 -29 25 27 c28 30 38 34 30 12
-4 -8 -10 -12 -15 -9 -5 3 -9 1 -9 -3 0 -5 9 -14 21 -21 16 -10 19 -10 13 -1
-5 9 -2 11 9 6 18 -7 42 17 32 32 -3 7 0 8 9 5 16 -6 17 -24 2 -35 -4 -4 -3
-10 3 -13 6 -4 11 -2 11 4 0 6 5 8 12 4 6 -4 8 -3 5 3 -4 6 0 13 8 17 13 5 20
-5 16 -26 0 -5 3 -8 9 -8 5 0 10 5 10 12 0 6 3 8 7 5 4 -4 20 5 36 20 l30 28
-18 -30 c-10 -16 -13 -25 -6 -19 8 7 25 9 46 4 26 -6 32 -5 28 6 -3 8 -9 11
-14 8 -5 -3 -6 3 -2 12 4 12 8 14 11 6 3 -10 7 -10 18 -1 8 7 17 9 21 5 3 -3
1 -6 -6 -6 -7 0 -9 -5 -5 -12 5 -7 3 -8 -6 -3 -9 5 -11 4 -6 -4 4 -6 11 -9 16
-6 4 3 10 0 12 -7 3 -7 7 -5 11 6 5 12 3 15 -6 10 -6 -4 -4 2 7 14 16 19 36
22 36 6 0 -3 -5 -2 -12 2 -7 5 -8 3 -3 -6 5 -8 4 -11 -1 -7 -5 3 -10 -3 -10
-14 0 -19 1 -20 14 -2 7 10 19 17 25 15 9 -3 9 -1 0 8 -16 17 4 70 25 70 11 0
13 3 6 8 -14 9 -14 65 0 74 8 6 8 8 0 8 -6 0 -11 16 -11 35 0 19 5 35 11 35 8
0 8 2 0 8 -6 4 -10 21 -10 37 0 17 4 33 10 37 8 6 8 8 0 8 -6 0 -11 16 -11 35
0 19 5 35 11 35 8 0 8 2 0 8 -6 4 -10 21 -10 37 0 17 4 33 10 37 8 6 8 8 0 8
-6 0 -11 16 -11 35 0 19 5 35 11 35 8 0 8 2 0 8 -6 4 -10 21 -10 37 0 17 4 33
10 37 8 6 8 8 0 8 -6 0 -11 16 -11 35 0 19 5 35 11 35 8 0 8 2 0 8 -6 4 -10
21 -10 37 0 17 4 33 10 37 8 6 8 8 0 8 -14 0 -14 70 0 70 8 0 8 2 0 8 -14 9
-14 65 0 74 8 6 8 8 0 8 -6 0 -11 16 -11 35 0 19 5 35 11 35 8 0 8 2 0 8 -6 4
-10 21 -10 37 0 17 4 33 10 37 8 6 8 8 0 8 -6 0 -11 16 -11 35 0 19 5 35 11
35 8 0 8 2 0 8 -14 9 -14 65 0 74 8 6 8 8 0 8 -6 0 -11 16 -11 35 0 19 5 35
11 35 8 0 8 2 0 8 -6 4 -10 21 -10 37 0 17 4 33 10 37 8 6 8 8 0 8 -6 0 -11
16 -11 35 0 19 5 35 11 35 8 0 8 2 0 8 -6 4 -10 21 -10 37 0 17 4 33 10 37 8
6 8 8 0 8 -6 0 -11 16 -11 35 0 19 5 35 11 35 8 0 8 2 0 8 -14 9 -14 65 0 74
7 5 7 8 -1 8 -7 0 -13 9 -13 21 0 13 4 18 13 13 9 -6 9 -4 0 7 -7 7 -13 29
-13 49 0 38 -22 71 -57 89 -16 8 -350 11 -1192 11 l-1171 0 -32 -29z m243
-1934 c-10 -9 -11 -8 -5 6 3 10 9 15 12 12 3 -3 0 -11 -7 -18z m67 3 c17 0 8
-13 -11 -16 -7 -1 -13 8 -14 20 -1 11 1 15 4 9 3 -7 12 -13 21 -13z m82 16 c0
-2 -7 -9 -15 -16 -13 -11 -14 -10 -9 4 5 14 24 23 24 12z m156 -16 c9 0 13 -4
10 -9 -7 -10 -42 -8 -38 2 1 4 2 13 3 20 0 10 2 10 6 0 2 -7 11 -13 19 -13z
m84 17 c0 -2 -10 -12 -21 -23 -22 -19 -22 -19 -8 4 12 19 29 30 29 19z m156
-17 c9 0 13 -4 10 -9 -7 -10 -42 -8 -38 2 1 4 2 13 3 20 0 10 2 10 6 0 2 -7
11 -13 19 -13z m84 16 c0 -2 -7 -9 -15 -16 -13 -11 -14 -10 -9 4 5 14 24 23
24 12z m35 -6 c11 9 12 7 8 -9 -6 -22 -23 -29 -23 -10 0 5 -4 7 -10 4 -6 -4
-7 1 -3 11 4 12 8 14 11 6 3 -10 7 -10 17 -2z m136 -13 c-10 -9 -11 -8 -5 6 3
10 9 15 12 12 3 -3 0 -11 -7 -18z m160 0 c-10 -9 -11 -8 -5 6 3 10 9 15 12 12
3 -3 0 -11 -7 -18z m67 3 c17 0 8 -13 -11 -16 -7 -1 -13 8 -14 20 -1 11 1 15
4 9 3 -7 12 -13 21 -13z m82 16 c0 -2 -7 -9 -15 -16 -13 -11 -14 -10 -9 4 5
14 24 23 24 12z m156 -16 c9 0 13 -4 10 -9 -7 -10 -42 -8 -38 2 1 4 2 13 3 20
0 10 2 10 6 0 2 -7 11 -13 19 -13z m84 17 c0 -2 -10 -12 -21 -23 -22 -19 -22
-19 -8 4 12 19 29 30 29 19z m156 -17 c9 0 13 -4 10 -9 -7 -10 -42 -8 -38 2 1
4 2 13 3 20 0 10 2 10 6 0 2 -7 11 -13 19 -13z m84 16 c0 -2 -7 -9 -15 -16
-13 -11 -14 -10 -9 4 5 14 24 23 24 12z m35 -6 c11 9 12 7 8 -9 -6 -22 -23
-29 -23 -10 0 5 -4 7 -10 4 -6 -4 -7 1 -3 11 4 12 8 14 11 6 3 -10 7 -10 17
-2z m136 -13 c-10 -9 -11 -8 -5 6 3 10 9 15 12 12 3 -3 0 -11 -7 -18z m160 0
c-10 -9 -11 -8 -5 6 3 10 9 15 12 12 3 -3 0 -11 -7 -18z m67 3 c17 0 8 -13
-11 -16 -7 -1 -13 8 -14 20 -1 11 1 15 4 9 3 -7 12 -13 21 -13z m82 16 c0 -2
-7 -9 -15 -16 -13 -11 -14 -10 -9 4 5 14 24 23 24 12z m-2115 -15 c3 -5 0 -13
-6 -17 -8 -4 -9 -3 -5 4 10 16 -6 15 -24 0 -12 -11 -12 -10 -1 5 15 19 27 22
36 8z m800 0 c3 -5 0 -13 -6 -17 -8 -4 -9 -3 -5 4 10 16 -6 15 -24 0 -12 -11
-12 -10 -1 5 15 19 27 22 36 8z m160 0 c3 -5 0 -13 -6 -17 -8 -4 -9 -3 -5 4
10 16 -6 15 -24 0 -12 -11 -12 -10 -1 5 15 19 27 22 36 8z m800 0 c3 -5 0 -13
-6 -17 -8 -4 -9 -3 -5 4 10 16 -6 15 -24 0 -12 -11 -12 -10 -1 5 15 19 27 22
36 8z m160 0 c3 -5 0 -13 -6 -17 -8 -4 -9 -3 -5 4 10 16 -6 15 -24 0 -12 -11
-12 -10 -1 5 15 19 27 22 36 8z"/>
<path d="M66 291 c-3 -5 2 -8 12 -7 9 0 16 -5 15 -11 -2 -7 2 -13 7 -13 16 0
11 27 -6 34 -20 8 -22 8 -28 -3z"/>
</g>
</svg>
